<?xml version="1.0" encoding="UTF-8"?>
<svg width="20px" height="20px" viewBox="0 0 20 20" version="1.1" xmlns="http://www.w3.org/2000/svg" xmlns:xlink="http://www.w3.org/1999/xlink">
    <!-- Generator: Sketch 46.2 (44496) - http://www.bohemiancoding.com/sketch -->
    <title>Combined Shape</title>
    <desc>Created with Sketch.</desc>
    <defs>
        <path d="M625.955954,44.8993853 L625.955954,36.2791771 C625.955954,35.1589866 625.04786,34.2508928 623.92767,34.2508928 L623.92767,34.2508928 L623.92767,34.2508928 C622.807479,34.2508928 621.899385,35.1589866 621.899385,36.2791771 L621.899385,36.2791771 L621.899385,44.8993853 L613.279177,44.8993853 C612.158987,44.8993853 611.250893,45.8074791 611.250893,46.9276695 C611.250893,48.04786 612.158987,48.9559538 613.279177,48.9559538 L613.279177,48.9559538 L621.899385,48.9559538 L621.899385,57.576162 C621.899385,58.6963524 622.807479,59.6044462 623.92767,59.6044462 C625.04786,59.6044462 625.955954,58.6963524 625.955954,57.576162 L625.955954,57.576162 L625.955954,48.9559538 L634.576162,48.9559538 C635.696352,48.9559538 636.604446,48.04786 636.604446,46.9276695 C636.604446,45.8074791 635.696352,44.8993853 634.576162,44.8993853 L625.955954,44.8993853 Z" id="path-1"></path>
    </defs>
    <g id="Page-1" stroke="none" stroke-width="1" fill="none" fill-rule="evenodd">
        <g id="Artboard" transform="translate(-614.000000, -37.000000)">
            <g id="Combined-Shape" transform="translate(623.927670, 46.927670) rotate(45.000000) translate(-623.927670, -46.927670) ">
                <use fill="#F7FAFD" fill-rule="evenodd" xlink:href="#path-1"></use>
                <path stroke="#A5B0B8" stroke-width="1" d="M634.576162,45.3993853 L625.455954,45.3993853 L625.455954,36.2791771 C625.455954,35.435129 624.771718,34.7508928 623.92767,34.7508928 C623.083621,34.7508928 622.399385,35.435129 622.399385,36.2791771 L622.399385,45.3993853 L613.279177,45.3993853 C612.435129,45.3993853 611.750893,46.0836214 611.750893,46.9276695 C611.750893,47.7717176 612.435129,48.4559538 613.279177,48.4559538 L622.399385,48.4559538 L622.399385,57.576162 C622.399385,58.4202101 623.083621,59.1044462 623.92767,59.1044462 C624.771718,59.1044462 625.455954,58.4202101 625.455954,57.576162 L625.455954,48.4559538 L634.576162,48.4559538 C635.42021,48.4559538 636.104446,47.7717176 636.104446,46.9276695 C636.104446,46.0836214 635.42021,45.3993853 634.576162,45.3993853 Z"></path>
            </g>
        </g>
    </g>
</svg>