<?xml version="1.0" encoding="UTF-8"?>
<svg width="17px" height="22px" viewBox="0 0 17 22" version="1.1" xmlns="http://www.w3.org/2000/svg" xmlns:xlink="http://www.w3.org/1999/xlink">
    <!-- Generator: Sketch 46.2 (44496) - http://www.bohemiancoding.com/sketch -->
    <title>Combined Shape</title>
    <desc>Created with Sketch.</desc>
    <defs>
        <path d="M665.019725,46.3640497 L665.019725,56.8057155 L665.019725,56.8057155 C665.019725,57.579853 664.392163,58.2074154 663.618026,58.2074154 L663.618026,58.2074154 C662.843888,58.2074154 662.216326,57.579853 662.216326,56.8057155 L662.216326,46.3640497 C659.53749,45.7312628 657.543993,43.3247098 657.543993,40.4525505 C657.543993,37.0979549 660.26343,34.3785178 663.618026,34.3785178 C666.972621,34.3785178 669.692058,37.0979549 669.692058,40.4525505 C669.692058,43.3247098 667.698561,45.7312628 665.019725,46.3640497 Z M663.695898,44.6576501 C665.975302,44.6576501 667.823125,42.8098274 667.823125,40.5304227 C667.823125,38.251018 665.975302,36.4031953 663.695898,36.4031953 C661.416493,36.4031953 659.56867,38.251018 659.56867,40.5304227 C659.56867,42.8098274 661.416493,44.6576501 663.695898,44.6576501 Z" id="path-1"></path>
    </defs>
    <g id="Page-1" stroke="none" stroke-width="1" fill="none" fill-rule="evenodd">
        <g id="Artboard" transform="translate(-654.000000, -35.000000)">
            <g id="Combined-Shape" transform="translate(663.618026, 46.292967) rotate(-33.300000) translate(-663.618026, -46.292967) ">
                <use fill="#F7FAFD" fill-rule="evenodd" xlink:href="#path-1"></use>
                <path stroke="#A5B0B8" stroke-width="1" d="M664.519725,56.8057155 L664.519725,45.968398 L664.90478,45.8774415 C667.399258,45.288203 669.192058,43.0510313 669.192058,40.4525505 C669.192058,37.3740972 666.696479,34.8785178 663.618026,34.8785178 C660.539572,34.8785178 658.043993,37.3740972 658.043993,40.4525505 C658.043993,43.0510313 659.836793,45.288203 662.331271,45.8774415 L662.716326,45.968398 L662.716326,56.8057155 C662.716326,57.3037106 663.12003,57.7074154 663.618026,57.7074154 C664.116021,57.7074154 664.519725,57.3037106 664.519725,56.8057155 Z M663.695898,45.1576501 C661.140351,45.1576501 659.06867,43.0859698 659.06867,40.5304227 C659.06867,37.9748756 661.140351,35.9031953 663.695898,35.9031953 C666.251445,35.9031953 668.323125,37.9748756 668.323125,40.5304227 C668.323125,43.0859698 666.251445,45.1576501 663.695898,45.1576501 Z"></path>
            </g>
        </g>
    </g>
</svg>